<svg width="301" height="301" viewBox="0 0 301 301" fill="none" xmlns="http://www.w3.org/2000/svg">
<rect x="1.5" y="1.5" width="298" height="298" rx="8.5" fill="white" stroke="#166653" stroke-width="3"/>
<path d="M140.503 230.063L189.514 95.0365L170.124 95.2057L140.503 230.063Z" fill="#166653"/>
<path d="M223.766 229.337L291.948 69.0478L267.074 94.3597L223.766 229.337Z" fill="#166653"/>
<path d="M16.1456 96.5495L62.9435 230.74M62.9435 230.74L99.1892 70.73M62.9435 230.74L80.0183 95.9921L99.1892 70.73M99.1892 70.73L140.503 230.063M140.503 230.063L189.514 95.0365M140.503 230.063L170.124 95.2057L189.514 95.0365M189.514 95.0365L223.766 229.337M223.766 229.337L291.948 69.0478L267.074 94.3597L223.766 229.337Z" stroke="#166653" stroke-width="11"/>
<path d="M55.0169 230.762L91.2627 70.7513L72.0917 96.0134L55.0169 230.762Z" fill="#24A586"/>
<path d="M8.21898 96.5708L55.0169 230.762M55.0169 230.762L91.2627 70.7513M55.0169 230.762L72.0917 96.0134L91.2627 70.7513M91.2627 70.7513L132.577 230.085M132.577 230.085L181.588 95.0579M132.577 230.085L162.198 95.2271L181.588 95.0579M181.588 95.0579L215.839 229.358M215.839 229.358L284.021 69.0692L259.148 94.381L215.839 229.358Z" stroke="#24A586" stroke-width="6"/>
</svg>
